<svg width="43" height="43" viewBox="0 0 43 43" fill="none" xmlns="http://www.w3.org/2000/svg">
    <path d="M21.5023 0C19.7108 0 18.1185 0.74228 17.1088 1.87827C16.0992 3.01427 15.6393 4.4522 15.6393 5.86388C15.6393 7.27555 16.0992 8.71349 17.1088 9.84948C17.7274 10.5454 18.5802 11.0677 19.548 11.388V11.9339C18.8616 12.0756 18.1876 12.2896 17.5364 12.5829L2.21466 19.4814L2.21084 19.4852C0.572426 20.2281 -0.143346 21.8839 0.023663 23.4555H0.00457772V32.4766C0.00457772 33.5378 0.594478 34.5328 1.57339 35.0191L14.2613 41.3029C18.8327 43.5657 24.1719 43.5657 28.7433 41.3029L41.4236 35.0267C42.4119 34.5423 43 33.5356 43 32.4766V23.4555H42.9733C43.1407 21.8801 42.4257 20.221 40.7823 19.4814L25.4606 12.5829C24.8118 12.2907 24.1402 12.0794 23.4566 11.9377V11.388C24.4244 11.0677 25.2772 10.5454 25.8957 9.84948C26.9054 8.71349 27.3653 7.27555 27.3653 5.86388C27.3653 4.4522 26.9054 3.01427 25.8957 1.87827C24.8861 0.74228 23.2938 0 21.5023 0ZM21.5023 3.90925C22.3166 3.90925 22.6786 4.14428 22.9719 4.47426C23.2651 4.80424 23.4566 5.32093 23.4566 5.86388C23.4566 6.40683 23.2651 6.92352 22.9719 7.25349C22.6786 7.58347 22.3166 7.8185 21.5023 7.8185C20.688 7.8185 20.326 7.58347 20.0327 7.25349C19.7394 6.92352 19.548 6.40683 19.548 5.86388C19.548 5.32093 19.7394 4.80424 20.0327 4.47426C20.326 4.14428 20.688 3.90925 21.5023 3.90925ZM19.548 16.015V23.4555H23.4566V16.0188C23.5881 16.0673 23.7237 16.0901 23.8536 16.1486L39.1448 23.0318L26.0942 30.0906C23.1625 31.6765 19.8382 31.6765 16.9065 30.0906L3.856 23.0318L19.1433 16.1486C19.2758 16.0889 19.4138 16.0642 19.548 16.015ZM12.7078 21.5009C11.9303 21.5009 11.1846 21.7068 10.6349 22.0734C10.0851 22.4399 9.77626 22.9371 9.77626 23.4555C9.77626 23.9739 10.0851 24.4711 10.6349 24.8376C11.1846 25.2042 11.9303 25.4101 12.7078 25.4101C13.4853 25.4101 14.2309 25.2042 14.7807 24.8376C15.3304 24.4711 15.6393 23.9739 15.6393 23.4555C15.6393 22.9371 15.3304 22.4399 14.7807 22.0734C14.2309 21.7068 13.4853 21.5009 12.7078 21.5009ZM3.91325 27.506L15.0476 33.5302C19.0968 35.7207 23.9039 35.7207 27.9531 33.5302H27.9569L39.0913 27.506V31.8161L27.0103 37.7983C23.5181 39.5269 19.4865 39.5269 15.9943 37.7983L3.91325 31.8161V27.506Z"
          fill="white"/>
</svg>
