<svg width="317" height="49" viewBox="0 0 317 49" fill="none" xmlns="http://www.w3.org/2000/svg">
<path d="M21.5023 3C19.7108 3 18.1185 3.74228 17.1088 4.87827C16.0992 6.01427 15.6393 7.4522 15.6393 8.86388C15.6393 10.2756 16.0992 11.7135 17.1088 12.8495C17.7274 13.5454 18.5802 14.0677 19.548 14.388V14.9339C18.8616 15.0756 18.1876 15.2896 17.5364 15.5829L2.21466 22.4814L2.21084 22.4852C0.572426 23.2281 -0.143346 24.8839 0.023663 26.4555H0.00457772V35.4766C0.00457772 36.5378 0.594478 37.5328 1.57339 38.0191L14.2613 44.3029C18.8327 46.5657 24.1719 46.5657 28.7433 44.3029L41.4235 38.0267C42.4118 37.5423 43 36.5356 43 35.4766V26.4555H42.9733C43.1407 24.8801 42.4257 23.221 40.7823 22.4814L25.4606 15.5829C24.8118 15.2907 24.1402 15.0794 23.4566 14.9377V14.388C24.4244 14.0677 25.2772 13.5454 25.8957 12.8495C26.9054 11.7135 27.3653 10.2756 27.3653 8.86388C27.3653 7.4522 26.9054 6.01427 25.8957 4.87827C24.8861 3.74228 23.2938 3 21.5023 3ZM21.5023 6.90925C22.3166 6.90925 22.6786 7.14428 22.9719 7.47426C23.2651 7.80424 23.4566 8.32093 23.4566 8.86388C23.4566 9.40683 23.2651 9.92352 22.9719 10.2535C22.6786 10.5835 22.3166 10.8185 21.5023 10.8185C20.688 10.8185 20.326 10.5835 20.0327 10.2535C19.7394 9.92352 19.548 9.40683 19.548 8.86388C19.548 8.32093 19.7394 7.80424 20.0327 7.47426C20.326 7.14428 20.688 6.90925 21.5023 6.90925ZM19.548 19.015V26.4555H23.4566V19.0188C23.5881 19.0673 23.7237 19.0901 23.8536 19.1486L39.1448 26.0318L26.0942 33.0906C23.1625 34.6765 19.8382 34.6765 16.9065 33.0906L3.856 26.0318L19.1433 19.1486C19.2758 19.0889 19.4138 19.0642 19.548 19.015ZM12.7078 24.5009C11.9303 24.5009 11.1846 24.7068 10.6349 25.0734C10.0851 25.4399 9.77626 25.9371 9.77626 26.4555C9.77626 26.9739 10.0851 27.4711 10.6349 27.8376C11.1846 28.2042 11.9303 28.4101 12.7078 28.4101C13.4853 28.4101 14.2309 28.2042 14.7807 27.8376C15.3304 27.4711 15.6393 26.9739 15.6393 26.4555C15.6393 25.9371 15.3304 25.4399 14.7807 25.0734C14.2309 24.7068 13.4853 24.5009 12.7078 24.5009ZM3.91325 30.506L15.0476 36.5302C19.0968 38.7207 23.9039 38.7207 27.9531 36.5302H27.9569L39.0913 30.506V34.8161L27.0103 40.7983C23.5181 42.5269 19.4865 42.5269 15.9943 40.7983L3.91325 34.8161V30.506Z" fill="black"/>
<path d="M61.2252 40V11.986H79.9992V16.564H66.9372V23.662H78.2772V28.282H66.9372V35.422H79.9992V40H61.2252ZM85.7476 20.596C86.3356 20.316 87.0356 20.036 87.8476 19.756C88.6596 19.476 89.5416 19.238 90.4936 19.042C91.4456 18.818 92.3976 18.65 93.3496 18.538C94.3296 18.398 95.2536 18.328 96.1216 18.328C98.0816 18.328 99.7056 18.594 100.994 19.126C102.31 19.63 103.29 20.442 103.934 21.562C104.606 22.654 104.942 24.096 104.942 25.888V40H99.6496V26.812C99.6496 26.28 99.5796 25.776 99.4396 25.3C99.2996 24.796 99.0616 24.362 98.7256 23.998C98.3896 23.606 97.9276 23.312 97.3396 23.116C96.7516 22.892 95.9956 22.78 95.0716 22.78C94.3716 22.78 93.6576 22.85 92.9296 22.99C92.2016 23.13 91.5856 23.312 91.0816 23.536V40H85.7476V20.596ZM120.426 40.462C119.026 40.462 117.682 40.266 116.394 39.874C115.106 39.482 113.958 38.852 112.95 37.984C111.942 37.116 111.144 35.996 110.556 34.624C109.968 33.252 109.674 31.586 109.674 29.626C109.674 27.582 109.954 25.846 110.514 24.418C111.074 22.99 111.844 21.828 112.824 20.932C113.804 20.008 114.938 19.35 116.226 18.958C117.542 18.538 118.928 18.328 120.384 18.328C121.504 18.328 122.652 18.44 123.828 18.664C125.004 18.888 126.054 19.21 126.978 19.63V24.25C126.026 23.83 125.074 23.494 124.122 23.242C123.17 22.962 122.19 22.822 121.182 22.822C119.222 22.822 117.696 23.312 116.604 24.292C115.512 25.272 114.966 26.882 114.966 29.122C114.966 31.418 115.456 33.126 116.436 34.246C117.444 35.366 119.096 35.926 121.392 35.926C122.428 35.926 123.436 35.772 124.416 35.464C125.396 35.128 126.264 34.764 127.02 34.372V39.034C126.04 39.51 125.018 39.86 123.954 40.084C122.89 40.336 121.714 40.462 120.426 40.462ZM135.715 48.19C135.099 48.19 134.497 48.134 133.909 48.022C133.349 47.91 132.859 47.756 132.439 47.56V43.15C132.831 43.29 133.209 43.388 133.573 43.444C133.937 43.528 134.315 43.57 134.707 43.57C135.491 43.57 136.149 43.374 136.681 42.982C137.213 42.618 137.661 42.03 138.025 41.218C138.417 40.406 138.725 39.384 138.949 38.152L139.033 41.008L130.003 18.832H136.051L141.511 34.624H140.881L146.299 18.832H151.927L143.401 40.84C142.673 42.716 141.889 44.186 141.049 45.25C140.209 46.314 139.327 47.07 138.403 47.518C137.507 47.966 136.611 48.19 135.715 48.19ZM164.313 40.462C162.913 40.462 161.569 40.266 160.281 39.874C158.993 39.482 157.845 38.852 156.837 37.984C155.829 37.116 155.031 35.996 154.443 34.624C153.855 33.252 153.561 31.586 153.561 29.626C153.561 27.582 153.841 25.846 154.401 24.418C154.961 22.99 155.731 21.828 156.711 20.932C157.691 20.008 158.825 19.35 160.113 18.958C161.429 18.538 162.815 18.328 164.271 18.328C165.391 18.328 166.539 18.44 167.715 18.664C168.891 18.888 169.941 19.21 170.865 19.63V24.25C169.913 23.83 168.961 23.494 168.009 23.242C167.057 22.962 166.077 22.822 165.069 22.822C163.109 22.822 161.583 23.312 160.491 24.292C159.399 25.272 158.853 26.882 158.853 29.122C158.853 31.418 159.343 33.126 160.323 34.246C161.331 35.366 162.983 35.926 165.279 35.926C166.315 35.926 167.323 35.772 168.303 35.464C169.283 35.128 170.151 34.764 170.907 34.372V39.034C169.927 39.51 168.905 39.86 167.841 40.084C166.777 40.336 165.601 40.462 164.313 40.462ZM180.946 40H175.654V10.852H180.946V40ZM196.092 40.63C192.62 40.63 190.016 39.664 188.28 37.732C186.544 35.8 185.676 33.014 185.676 29.374C185.676 25.482 186.558 22.654 188.322 20.89C190.114 19.126 192.69 18.244 196.05 18.244C198.402 18.244 200.362 18.664 201.93 19.504C203.498 20.316 204.66 21.548 205.416 23.2C206.2 24.852 206.592 26.91 206.592 29.374C206.592 33.014 205.682 35.8 203.862 37.732C202.07 39.664 199.48 40.63 196.092 40.63ZM196.092 36.262C197.324 36.262 198.318 35.982 199.074 35.422C199.858 34.862 200.432 34.078 200.796 33.07C201.16 32.034 201.342 30.802 201.342 29.374C201.342 27.778 201.146 26.476 200.754 25.468C200.39 24.46 199.816 23.718 199.032 23.242C198.276 22.766 197.296 22.528 196.092 22.528C194.86 22.528 193.866 22.78 193.11 23.284C192.354 23.788 191.794 24.544 191.43 25.552C191.094 26.56 190.926 27.834 190.926 29.374C190.926 31.614 191.332 33.322 192.144 34.498C192.956 35.674 194.272 36.262 196.092 36.262ZM221.879 40.588C221.403 40.588 220.759 40.532 219.947 40.42C219.163 40.336 218.351 40.154 217.511 39.874C216.699 39.594 215.985 39.188 215.369 38.656L216.587 36.976V48.022H211.337V23.116C211.337 22.22 211.603 21.464 212.135 20.848C212.695 20.232 213.423 19.742 214.319 19.378C215.243 18.986 216.265 18.706 217.385 18.538C218.533 18.342 219.723 18.244 220.955 18.244C222.971 18.244 224.763 18.594 226.331 19.294C227.899 19.994 229.145 21.184 230.069 22.864C230.993 24.544 231.455 26.826 231.455 29.71C231.455 31.894 231.077 33.812 230.321 35.464C229.565 37.088 228.473 38.348 227.045 39.244C225.617 40.14 223.895 40.588 221.879 40.588ZM220.535 36.262C221.767 36.262 222.789 36.024 223.601 35.548C224.441 35.072 225.057 34.344 225.449 33.364C225.869 32.356 226.079 31.096 226.079 29.584C226.079 28.24 225.925 27.05 225.617 26.014C225.337 24.978 224.805 24.18 224.021 23.62C223.265 23.032 222.187 22.738 220.787 22.738C219.415 22.738 218.365 22.878 217.637 23.158C216.937 23.438 216.587 23.83 216.587 24.334V35.212C217.203 35.548 217.861 35.814 218.561 36.01C219.261 36.178 219.919 36.262 220.535 36.262ZM245.476 40.63C243.376 40.63 241.542 40.21 239.974 39.37C238.406 38.502 237.188 37.242 236.32 35.59C235.452 33.938 235.018 31.95 235.018 29.626C235.018 25.93 235.9 23.116 237.664 21.184C239.456 19.224 241.962 18.244 245.182 18.244C247.506 18.244 249.368 18.748 250.768 19.756C252.196 20.764 253.232 22.206 253.876 24.082C254.548 25.93 254.87 28.142 254.842 30.718H238.462L238.042 27.106H250.6L249.592 28.618C249.536 26.406 249.144 24.824 248.416 23.872C247.716 22.892 246.582 22.402 245.014 22.402C244.062 22.402 243.222 22.626 242.494 23.074C241.794 23.494 241.248 24.208 240.856 25.216C240.492 26.224 240.31 27.61 240.31 29.374C240.31 31.558 240.828 33.238 241.864 34.414C242.9 35.562 244.482 36.136 246.61 36.136C247.478 36.136 248.304 36.052 249.088 35.884C249.9 35.688 250.642 35.464 251.314 35.212C252.014 34.96 252.602 34.722 253.078 34.498V39.202C252.098 39.622 250.978 39.958 249.718 40.21C248.486 40.49 247.072 40.63 245.476 40.63ZM269.275 40.63C267.819 40.63 266.433 40.462 265.117 40.126C263.801 39.79 262.639 39.202 261.631 38.362C260.623 37.522 259.825 36.36 259.237 34.876C258.677 33.392 258.397 31.502 258.397 29.206C258.397 25.818 259.223 23.144 260.875 21.184C262.527 19.224 265.033 18.244 268.393 18.244C268.869 18.244 269.485 18.3 270.241 18.412C270.997 18.524 271.767 18.72 272.551 19C273.363 19.252 274.063 19.658 274.651 20.218L273.475 21.898V10.054H278.725V35.044C278.725 35.996 278.445 36.822 277.885 37.522C277.353 38.222 276.625 38.81 275.701 39.286C274.777 39.734 273.755 40.07 272.635 40.294C271.515 40.518 270.395 40.63 269.275 40.63ZM269.443 36.094C270.591 36.094 271.543 35.954 272.299 35.674C273.083 35.394 273.475 34.988 273.475 34.456V23.704C272.859 23.34 272.201 23.074 271.501 22.906C270.801 22.738 270.129 22.654 269.485 22.654C268.197 22.654 267.133 22.892 266.293 23.368C265.453 23.816 264.823 24.544 264.403 25.552C263.983 26.532 263.773 27.792 263.773 29.332C263.773 30.676 263.941 31.852 264.277 32.86C264.613 33.868 265.187 34.666 265.999 35.254C266.839 35.814 267.987 36.094 269.443 36.094ZM284.717 40V19.042H290.051L290.093 40H284.717ZM284.591 15.682V11.314H290.177V15.682H284.591ZM303.972 40.63C302.796 40.63 301.676 40.518 300.612 40.294C299.548 40.07 298.596 39.706 297.756 39.202C296.916 38.67 296.244 37.956 295.74 37.06C295.264 36.136 295.026 34.988 295.026 33.616C295.026 32.188 295.32 30.984 295.908 30.004C296.496 28.996 297.35 28.24 298.47 27.736C299.618 27.204 301.018 26.938 302.67 26.938C303.678 26.938 304.616 27.036 305.484 27.232C306.352 27.4 307.136 27.638 307.836 27.946C308.536 28.254 309.11 28.59 309.558 28.954L309.936 31.936C309.348 31.544 308.592 31.236 307.668 31.012C306.772 30.76 305.792 30.634 304.728 30.634C303.244 30.634 302.138 30.872 301.41 31.348C300.682 31.824 300.318 32.566 300.318 33.574C300.318 34.274 300.514 34.862 300.906 35.338C301.298 35.786 301.802 36.136 302.418 36.388C303.034 36.612 303.678 36.724 304.35 36.724C305.89 36.724 306.996 36.626 307.668 36.43C308.368 36.206 308.718 35.744 308.718 35.044V26.686C308.718 25.314 308.284 24.32 307.416 23.704C306.548 23.06 305.33 22.738 303.762 22.738C302.558 22.738 301.326 22.948 300.066 23.368C298.806 23.76 297.784 24.278 297 24.922V20.092C297.756 19.616 298.89 19.196 300.402 18.832C301.914 18.468 303.538 18.286 305.274 18.286C306.002 18.286 306.772 18.356 307.584 18.496C308.396 18.636 309.166 18.86 309.894 19.168C310.65 19.476 311.336 19.91 311.952 20.47C312.568 21.002 313.058 21.688 313.422 22.528C313.786 23.34 313.968 24.334 313.968 25.51V35.548C313.968 36.864 313.548 37.9 312.708 38.656C311.868 39.384 310.706 39.888 309.222 40.168C307.738 40.476 305.988 40.63 303.972 40.63Z" fill="black"/>
</svg>
